# xmcd CD database file
#
# Track frame offsets:
#	150
#	14145
#	36797
#	52585
#	74672
#	88765
#	114585
#	136817
#	155397
#	173005
#	185142
#	205397
#	225305
#
# Disc length: 3110 seconds
#
# Revision: 5
# Processed by: cddbd v1.5.2PL0 Copyright (c) Steve Scherf et al.
# Submitted via: CDex 2.22
#
DISCID=ae0c240d
DTITLE=西村 由紀江 - フジテレビ系『グッド・モーニング -Good Mourning-』オリジナル･サウンドトラック
DYEAR=1994
DGENRE=New Age
TTITLE0=作曲: 羽田 一郎 - Baila! Baila! Baila!  -Instrumental Version-
TTITLE1=Heartwarming Time
TTITLE2=A Breath of Air
TTITLE3=MINORI'S Theme
TTITLE4=Habanera
TTITLE5=作曲: 羽田 一郎 - Believe  -Piano and Guitar-
TTITLE6=Memoirs
TTITLE7=La Sole
TTITLE8=A Wayfarer from a Strange Land
TTITLE9=Save A Little Prayer
TTITLE10=Heartwarming Time  -Piano and String Quartet-
TTITLE11=Ferias
TTITLE12=MINORI'S Theme  -Piano Solo-
EXTD=YEAR: 1994
EXTT0=
EXTT1=
EXTT2=
EXTT3=
EXTT4=
EXTT5=
EXTT6=
EXTT7=
EXTT8=
EXTT9=
EXTT10=
EXTT11=
EXTT12=
PLAYORDER=
